<svg xmlns="http://www.w3.org/2000/svg" width="16" height="16" viewBox="0 0 16 16">
    <path class="change" fill="#525252" fill-opacity=".75" fill-rule="evenodd" d="M10.914.049c.25.121.358.419.245.672l-3.114 6.97 1.263 2.827c.257-.628.713-1.17 1.328-1.512l.145-.075c1.484-.722 3.248-.052 3.94 1.497.693 1.549.05 3.39-1.434 4.112-1.44.701-3.145.09-3.876-1.362l-.064-.135L7.5 8.91l-1.847 4.133c-.692 1.55-2.456 2.22-3.94 1.497-1.484-.722-2.127-2.563-1.434-4.112.692-1.55 2.456-2.22 3.94-1.497.689.335 1.196.911 1.473 1.587L6.954 7.69 3.841.721c-.113-.253-.005-.55.245-.672.24-.117.528-.017.644.222l.007.015L7.5 6.47 10.263.286c.109-.244.394-.353.637-.244l.014.007zM1.188 10.986c-.467 1-.034 2.19.967 2.657 1 .467 2.19.034 2.657-.967.467-1.001.034-2.19-.967-2.657-1-.467-2.19-.034-2.657.967zm12.624 0c-.467-1.001-1.656-1.434-2.657-.967-1 .466-1.434 1.656-.967 2.657.467 1 1.656 1.434 2.657.967 1-.467 1.434-1.656.967-2.657z"/>
</svg>
