<svg xmlns="http://www.w3.org/2000/svg" width="16" height="16" viewBox="0 0 16 16">
    <path class="change" fill="#525252" fill-opacity=".75" fill-rule="evenodd" d="M8 0c4.418 0 8 3.582 8 8s-3.582 8-8 8-8-3.582-8-8 3.582-8 8-8zm.653 11.625h-1.3V13h1.3v-1.375zM8.013 3c-.859 0-1.549.244-2.071.731-.475.443-.777 1.064-.908 1.861L5 5.837l1.173.148c.102-.685.315-1.188.641-1.51.326-.321.731-.482 1.218-.482.503 0 .928.177 1.275.533.346.355.52.768.52 1.237 0 .26-.06.499-.178.718-.104.192-.313.44-.629.747l-.142.135c-.395.369-.669.65-.82.842-.208.263-.358.525-.451.784-.106.287-.168.62-.185.996l-.005.3.006.294H8.52c.009-.483.04-.832.095-1.046.055-.215.14-.405.254-.57.1-.145.298-.36.596-.645l.133-.127c.554-.519.926-.959 1.117-1.321.19-.362.285-.758.285-1.187 0-.742-.27-1.375-.812-1.898C9.647 3.262 8.922 3 8.013 3z"/>
</svg>
