<svg xmlns="http://www.w3.org/2000/svg" width="16" height="16" viewBox="0 0 16 16">
    <g fill="none" fill-rule="evenodd">
        <path class="change" fill="#525252" fill-opacity=".75" d="M9.321 5c2.387 0 4.322 1.935 4.322 4.321 0 .983-.328 1.889-.88 2.615l3.066 3.067c.228.228.228.598 0 .826-.228.228-.598.228-.826 0l-3.067-3.066c-.726.552-1.632.88-2.615.88C6.935 13.643 5 11.708 5 9.32 5 6.935 6.935 5 9.321 5zm-.005 1c-1.83 0-3.313 1.483-3.313 3.312 0 1.83 1.483 3.313 3.313 3.313s3.312-1.483 3.312-3.313S11.145 6 9.316 6z"/>
        <path fill="#F67768" fill-rule="nonzero" d="M4 9c0 1.636.785 3.088 2 4H0V7l4.417-.001C4.149 7.61 4 8.289 4 9z"/>
        <path fill="#3CB371" fill-rule="nonzero" d="M13 0v6c-.912-1.215-2.364-2-4-2-.712 0-1.389.149-2.001.417L7 0h6z"/>
        <path fill="#5E83F4" fill-rule="nonzero" d="M6 0v5c-.379.284-.716.621-1 1H0V0h6z"/>
    </g>
</svg>
