<svg xmlns="http://www.w3.org/2000/svg" width="16" height="16" viewBox="0 0 16 16">
    <g fill="none" fill-rule="evenodd">
        <path class="change" fill="#525252" fill-opacity=".75" d="M12 4H9v2H8v.999H4V9l2-.001V10H4v2h2v1H0V1h13v5h-1V4zm-9 6H1v2h2v-2zm0-3.001H1V9h2V6.999zm1-3v2L8 6V4l-4-.001zm-1 0L1 4v1.999h2v-2zM12 2H9v1h3V2zM8 2H4v.999L8 3V2zM3 2H1v1l2-.001V2z"/>
        <path fill="#5E83F4" fill-rule="nonzero" d="M11.5 7c2.485 0 4.5 2.015 4.5 4.5S13.985 16 11.5 16 7 13.985 7 11.5 9.015 7 11.5 7zm-1.496 2v5l4-2.5-4-2.5z"/>
    </g>
</svg>
