<svg xmlns="http://www.w3.org/2000/svg" width="16" height="16" viewBox="0 0 16 16">
    <g class="change" fill="#525252" fill-opacity=".75" fill-rule="evenodd">
        <path d="M5.689 8.81l1.414 1.415-4.285 4.286c-.39.39-1.024.39-1.415 0-.39-.39-.39-1.024 0-1.414L5.69 8.811zm8.2-8.199L12 2l-.111 2.026L14 4l1.304-1.974c.532 1.115.337 2.49-.587 3.414-.923.924-2.3 1.12-3.415.586L9.225 8.103 7.81 6.688 9.888 4.61c-.532-1.115-.337-2.49.587-3.414.923-.923 2.3-1.119 3.414-.586z"/>
        <path d="M1.414 1L3.89 2.768l.707 2.12 4.536 4.537c.39-.39 1.023-.39 1.414 0l3.535 3.535c.391.39.391 1.024 0 1.414l-.707.707c-.39.391-1.023.391-1.414 0l-3.535-3.535c-.39-.39-.39-1.024 0-1.414L3.888 5.596l-2.12-.707L0 2.414 1.414 1z"/>
    </g>
</svg>
